<svg width="1024" height="1024" viewBox="0 0 1024 1024" fill="none" xmlns="http://www.w3.org/2000/svg">
  <rect width="1024" height="1024" fill="#2196F3"/>
  <path d="M512 256C406.98 256 322 340.98 322 446C322 551.02 406.98 636 512 636C617.02 636 702 551.02 702 446C702 340.98 617.02 256 512 256ZM512 576C440.65 576 382 517.35 382 446C382 374.65 440.65 316 512 316C583.35 316 642 374.65 642 446C642 517.35 583.35 576 512 576Z" fill="white"/>
  <path d="M512 636C406.98 636 322 720.98 322 826H382C382 754.65 440.65 696 512 696C583.35 696 642 754.65 642 826H702C702 720.98 617.02 636 512 636Z" fill="white"/>
  <path d="M512 256C617.02 256 702 171.02 702 66H642C642 137.35 583.35 196 512 196C440.65 196 382 137.35 382 66H322C322 171.02 406.98 256 512 256Z" fill="white"/>
  <path d="M702 446C702 340.98 617.02 256 512 256V316C583.35 316 642 374.65 642 446C642 517.35 583.35 576 512 576V636C617.02 636 702 551.02 702 446Z" fill="white"/>
  <path d="M322 446C322 551.02 406.98 636 512 636V576C440.65 576 382 517.35 382 446C382 374.65 440.65 316 512 316V256C406.98 256 322 340.98 322 446Z" fill="white"/>
</svg>