<svg width="512" height="512" viewBox="0 0 512 512" fill="none" xmlns="http://www.w3.org/2000/svg">
  <path d="M256 0C114.84 0 0 114.84 0 256C0 397.16 114.84 512 256 512C397.16 512 512 397.16 512 256C512 114.84 397.16 0 256 0ZM256 470.4C137.83 470.4 41.6 374.17 41.6 256C41.6 137.83 137.83 41.6 256 41.6C374.17 41.6 470.4 137.83 470.4 256C470.4 374.17 374.17 470.4 256 470.4Z" fill="#2196F3"/>
  <path d="M256 128C203.49 128 161 170.49 161 223C161 275.51 203.49 318 256 318C308.51 318 351 275.51 351 223C351 170.49 308.51 128 256 128ZM256 288C220.32 288 191 258.68 191 223C191 187.32 220.32 158 256 158C291.68 158 321 187.32 321 223C321 258.68 291.68 288 256 288Z" fill="#2196F3"/>
  <path d="M256 318C203.49 318 161 360.49 161 413H191C191 377.32 220.32 348 256 348C291.68 348 321 377.32 321 413H351C351 360.49 308.51 318 256 318Z" fill="#2196F3"/>
  <path d="M256 128C308.51 128 351 85.51 351 33H321C321 68.68 291.68 98 256 98C220.32 98 191 68.68 191 33H161C161 85.51 203.49 128 256 128Z" fill="#2196F3"/>
</svg>