<svg width="1242" height="2688" viewBox="0 0 1242 2688" fill="none" xmlns="http://www.w3.org/2000/svg">
  <rect width="1242" height="2688" fill="#2196F3"/>
  <path d="M621 1244C515.98 1244 431 1328.98 431 1434C431 1539.02 515.98 1624 621 1624C726.02 1624 811 1539.02 811 1434C811 1328.98 726.02 1244 621 1244ZM621 1564C549.65 1564 491 1505.35 491 1434C491 1362.65 549.65 1304 621 1304C692.35 1304 751 1362.65 751 1434C751 1505.35 692.35 1564 621 1564Z" fill="white"/>
  <path d="M621 1624C515.98 1624 431 1708.98 431 1814H491C491 1742.65 549.65 1684 621 1684C692.35 1684 751 1742.65 751 1814H811C811 1708.98 726.02 1624 621 1624Z" fill="white"/>
  <path d="M621 1244C726.02 1244 811 1159.02 811 1054H751C751 1125.35 692.35 1184 621 1184C549.65 1184 491 1125.35 491 1054H431C431 1159.02 515.98 1244 621 1244Z" fill="white"/>
  <text x="621" y="1900" font-family="Arial" font-size="120" text-anchor="middle" fill="white">QuickAudit</text>
</svg>