<?xml version="1.0" encoding="UTF-8"?>
<svg width="200" height="200" viewBox="0 0 200 200" fill="none" xmlns="http://www.w3.org/2000/svg">
  <!-- Background Circle -->
  <circle cx="100" cy="100" r="90" fill="#2196F3"/>
  
  <!-- Checkmark -->
  <path d="M60 100L85 125L140 70" stroke="white" stroke-width="12" stroke-linecap="round" stroke-linejoin="round"/>
  
  <!-- Q Letter -->
  <path d="M100 40C77.909 40 60 57.909 60 80C60 102.091 77.909 120 100 120C122.091 120 140 102.091 140 80C140 57.909 122.091 40 100 40ZM100 110C83.431 110 70 96.569 70 80C70 63.431 83.431 50 100 50C116.569 50 130 63.431 130 80C130 96.569 116.569 110 100 110Z" fill="white"/>
</svg> 