<?xml version="1.0" encoding="UTF-8"?>
<svg width="200" height="200" viewBox="0 0 200 200" fill="none" xmlns="http://www.w3.org/2000/svg">
  <!-- Background Circle -->
  <circle cx="100" cy="100" r="90" fill="#2563EB" fill-opacity="0.1"/>
  
  <!-- Checkmark Shield -->
  <path d="M100 20L140 40V70C140 95.5 122.5 120 100 130C77.5 120 60 95.5 60 70V40L100 20Z" fill="#2563EB"/>
  
  <!-- Checkmark -->
  <path d="M85 90L95 100L115 80" stroke="white" stroke-width="8" stroke-linecap="round" stroke-linejoin="round"/>
  
  <!-- Q Letter -->
  <path d="M100 150C111.046 150 120 141.046 120 130C120 118.954 111.046 110 100 110C88.9543 110 80 118.954 80 130C80 141.046 88.9543 150 100 150Z" stroke="#2563EB" stroke-width="8"/>
  <path d="M110 140L120 150" stroke="#2563EB" stroke-width="8" stroke-linecap="round"/>
</svg> 